<svg version="1" xmlns="http://www.w3.org/2000/svg" width="426.667" height="426.667" viewBox="0 0 320.000000 320.000000"><path d="M0 160v160h320V0H0v160zM146.4 42c2.9 1.2 7.4 3.8 9.8 5.9l4.3 3.9 4.3-3.9c11.8-10.4 29.6-10.4 40-.1 7.8 7.9 10.2 21.8 5.3 31.2-1.4 2.7-10 12.3-21.7 24L169 122.5l24 24 24 24V280h-16.5c-15.2 0-16.7-.2-18.5-2-2.6-2.6-2.6-6.4 0-9 1.7-1.7 3.3-2 12-2h10v-91.5l-21.7-21.7-21.8-21.8-21.7 21.7-21.8 21.8V267h19.5c19.5 0 19.6 0 22 2.5 3 2.9 3.1 4.5.4 7.9l-2 2.6H104V170.5l24-24 24-24-19.4-19.5c-11.5-11.5-20.2-21.2-21.5-23.7-7.3-14.6-.2-32 15.4-38 4.8-1.8 13.8-1.5 19.9.7z"/><path d="M128.3 55c-3.8 2.3-6 5.5-6.9 9.7-1.3 6.6 1 9.9 19.9 29 10 10.1 18.6 18.3 19.2 18.3.6 0 9.2-8.2 19.2-18.3 19-19.2 21.2-22.3 19.9-29.2-1.9-9.8-12.4-14.2-22.4-9.4-5.4 2.7-9 7.9-10.1 14.9-.9 5.6-2.9 8-6.6 8-3.7 0-5.7-2.4-6.6-8-.4-2.9-1.9-7-3.3-9-4.7-7.1-15.7-10.1-22.3-6z"/></svg>